<svg width="24" height="24" viewBox="0 0 24 24" fill="none" xmlns="http://www.w3.org/2000/svg">
<path d="M20.925 13.175C20.975 12.8 21 12.4125 21 12C21 11.6 20.975 11.2 20.9125 10.825L23.45 8.85C23.675 8.675 23.7375 8.3375 23.6 8.0875L21.2 3.9375C21.05 3.6625 20.7375 3.575 20.4625 3.6625L17.475 4.8625C16.85 4.3875 16.1875 3.9875 15.45 3.6875L15 0.5125C14.95 0.2125 14.7 0 14.4 0H9.6C9.3 0 9.0625 0.2125 9.0125 0.5125L8.5625 3.6875C7.825 3.9875 7.15 4.4 6.5375 4.8625L3.55 3.6625C3.275 3.5625 2.9625 3.6625 2.8125 3.9375L0.425 8.0875C0.275 8.35 0.325 8.675 0.575 8.85L3.1125 10.825C3.05 11.2 3 11.6125 3 12C3 12.3875 3.025 12.8 3.0875 13.175L0.55 15.15C0.325 15.325 0.2625 15.6625 0.4 15.9125L2.8 20.0625C2.95 20.3375 3.2625 20.425 3.5375 20.3375L6.525 19.1375C7.15 19.6125 7.8125 20.0125 8.55 20.3125L9 23.4875C9.0625 23.7875 9.3 24 9.6 24H14.4C14.7 24 14.95 23.7875 14.9875 23.4875L15.4375 20.3125C16.175 20.0125 16.85 19.6125 17.4625 19.1375L20.45 20.3375C20.725 20.4375 21.0375 20.3375 21.1875 20.0625L23.5875 15.9125C23.7375 15.6375 23.675 15.325 23.4375 15.15L20.925 13.175ZM12 16.5C9.525 16.5 7.5 14.475 7.5 12C7.5 9.525 9.525 7.5 12 7.5C14.475 7.5 16.5 9.525 16.5 12C16.5 14.475 14.475 16.5 12 16.5Z" fill="black"/>
</svg>
